<svg width="128" height="128" viewBox="0 0 128 128" fill="none" xmlns="http://www.w3.org/2000/svg">
<rect x="64.5" y="9.32843" width="76.6102" height="76.6102" rx="3" transform="rotate(45 64.5 9.32843)" stroke="white" stroke-width="4"/>
<path d="M69.675 48.513C70.899 47.017 72.157 46.269 73.449 46.269C74.537 46.269 75.54 46.677 76.458 47.493C77.376 48.309 77.835 49.176 77.835 50.094C77.835 51.284 77.274 52.508 76.152 53.766C74.35 55.772 72.004 58.22 69.114 61.11C68.536 61.688 68.128 62.147 67.89 62.487C68.944 63.847 69.981 65.156 71.001 66.414C72.055 67.638 73.109 68.845 74.163 70.035L77.427 73.605C78.617 74.897 79.212 76.155 79.212 77.379C79.212 78.501 78.719 79.47 77.733 80.286C76.747 81.102 75.727 81.51 74.673 81.51C73.279 81.51 72.106 80.881 71.154 79.623C70.78 79.181 70.168 78.365 69.318 77.175L62.178 67.587C61.906 67.893 61.498 68.352 60.954 68.964C60.682 69.27 60.444 69.525 60.24 69.729C60.07 69.899 59.951 70.018 59.883 70.086L59.934 77.889C59.934 80.201 58.506 81.374 55.65 81.408C54.324 81.476 53.253 81.17 52.437 80.49C51.621 79.844 51.213 78.926 51.213 77.736V75.543V72.381V61.314V49.839C51.213 48.581 51.621 47.646 52.437 47.034C53.253 46.422 54.307 46.116 55.599 46.116C56.925 46.116 57.979 46.422 58.761 47.034C59.543 47.646 59.934 48.53 59.934 49.686C59.934 51.93 59.934 53.919 59.934 55.653C59.934 57.353 59.917 58.798 59.883 59.988L69.675 48.513Z" fill="white"/>
</svg>
